{
  "accessors": [
    {
      "bufferView": 2,
      "componentType": 5126,
      "count": 5149,
      "max": [
        3900.0,
        3900.0,
        3900.0
      ],
      "min": [
        -3900.0,
        -3900.0,
        -3900.0
      ],
      "type": "VEC3"
    },
    {
      "bufferView": 2,
      "byteOffset": 61788,
      "componentType": 5126,
      "count": 5149,
      "max": [
        1.0,
        1.0,
        1.0
      ],
      "min": [
        -1.0,
        -1.0,
        -1.0
      ],
      "type": "VEC3"
    },
    {
      "bufferView": 1,
      "componentType": 5126,
      "count": 5149,
      "max": [
        1.0,
        1.0
      ],
      "min": [
        0.0,
        0.0
      ],
      "type": "VEC2"
    },
    {
      "bufferView": 1,
      "byteOffset": 41192,
      "componentType": 5126,
      "count": 5149,
      "max": [
        1.0,
        1.0
      ],
      "min": [
        0.0,
        0.0
      ],
      "type": "VEC2"
    },
    {
      "bufferView": 0,
      "componentType": 5125,
      "count": 29400,
      "type": "SCALAR"
    }
  ],
  "asset": {
    "extras": {
      "author": "sgmgdrv (https://sketchfab.com/sgmgdrv)",
      "license": "CC-BY-4.0 (http://creativecommons.org/licenses/by/4.0/)",
      "source": "https://sketchfab.com/3d-models/tv-326122b6658d4b2e9844f03471d9e00e",
      "title": "TV"
    },
    "generator": "Sketchfab-12.67.0",
    "version": "2.0"
  },
  "bufferViews": [
    {
      "buffer": 0,
      "byteLength": 117600,
      "name": "floatBufferViews",
      "target": 34963
    },
    {
      "buffer": 0,
      "byteLength": 82384,
      "byteOffset": 117600,
      "byteStride": 8,
      "name": "floatBufferViews",
      "target": 34962
    },
    {
      "buffer": 0,
      "byteLength": 123576,
      "byteOffset": 199984,
      "byteStride": 12,
      "name": "floatBufferViews",
      "target": 34962
    }
  ],
  "buffers": [
    {
      "byteLength": 323560,
      "uri": "scene.bin"
    }
  ],
  "extensionsUsed": [
    "KHR_materials_unlit"
  ],
  "images": [
    {
      "uri": "textures/Spherical_Panorama_Material_baseColor.jpeg"
    }
  ],
  "materials": [
    {
      "doubleSided": true,
      "extensions": {
        "KHR_materials_unlit": {}
      },
      "name": "Spherical_Panorama_Material",
      "pbrMetallicRoughness": {
        "baseColorTexture": {
          "index": 0
        },
        "metallicFactor": 0.0
      }
    }
  ],
  "meshes": [
    {
      "name": "Spherical_Panorama_Material",
      "primitives": [
        {
          "attributes": {
            "NORMAL": 1,
            "POSITION": 0,
            "TEXCOORD_0": 2,
            "TEXCOORD_1": 3
          },
          "indices": 4,
          "material": 0,
          "mode": 4
        }
      ]
    }
  ],
  "nodes": [
    {
      "children": [
        1
      ],
      "matrix": [
        0.008377740544029788,
        6.246796883502841e-05,
        -0.00030986343798862157,
        0.0,
        -0.0003160974771040555,
        0.001655629940636465,
        -0.008212516239252954,
        0.0,
        -3.635850975947309e-21,
        0.008218359819379073,
        0.001656808001192932,
        0.0,
        5.637176513671875,
        -55.95900726318365,
        261.8198547363281,
        1.0
      ],
      "name": "Sketchfab_model"
    },
    {
      "children": [
        2,
        4,
        6,
        8
      ],
      "name": "Collada visual scene group"
    },
    {
      "children": [
        3
      ],
      "name": "global_ambient_light"
    },
    {
      "name": "global_ambient_light"
    },
    {
      "children": [
        5
      ],
      "matrix": [
        0.013111,
        -0.01081,
        0.001461,
        0.0,
        0.010862,
        0.012726,
        -0.003311,
        0.0,
        0.001008,
        0.003476,
        0.016668,
        0.0,
        167.306,
        146.357,
        -1308.68,
        1.0
      ],
      "name": "Spherical_Panorama"
    },
    {
      "mesh": 0,
      "name": "Spherical_Panorama_Material"
    },
    {
      "children": [
        7
      ],
      "matrix": [
        1.0,
        0.0,
        0.0,
        0.0,
        0.0,
        0.0,
        1.0,
        0.0,
        0.0,
        -1.0,
        0.0,
        0.0,
        474.229,
        414.777,
        0.0,
        1.0
      ],
      "name": "Camera_1"
    },
    {
      "name": "Camera_2"
    },
    {
      "children": [
        9
      ],
      "matrix": [
        0.242535,
        0.0,
        -0.970143,
        0.0,
        -0.570782,
        0.808608,
        -0.142695,
        0.0,
        0.784465,
        0.588348,
        0.196116,
        0.0,
        7606.69,
        5764.12,
        1783.11,
        1.0
      ],
      "name": "Infinite_Light_1"
    },
    {
      "name": "Infinite_Light_1"
    }
  ],
  "samplers": [
    {
      "magFilter": 9729,
      "minFilter": 9987,
      "wrapS": 10497,
      "wrapT": 10497
    }
  ],
  "scene": 0,
  "scenes": [
    {
      "name": "Sketchfab_Scene",
      "nodes": [
        0
      ]
    }
  ],
  "textures": [
    {
      "sampler": 0,
      "source": 0
    }
  ]
}
